<svg version="1.1" xmlns="http://www.w3.org/2000/svg" xmlns:xlink="http://www.w3.org/1999/xlink" width="20.71328" height="140.9034" viewBox="0,0,20.71328,140.9034"><g transform="translate(-229.66905,-101.44574)"><g data-paper-data="{&quot;isPaintingLayer&quot;:true}" fill="none" fill-rule="nonzero" stroke-linejoin="miter" stroke-miterlimit="10" stroke-dasharray="" stroke-dashoffset="0" style="mix-blend-mode: normal"><path d="M240,177.04842v-63.76364" stroke-opacity="0.52549" stroke="#00d1c7" stroke-width="1.5" stroke-linecap="round"/><path d="M239.94862,167.01847v13.3802" stroke="#d1d1d1" stroke-width="2.5" stroke-linecap="round"/><path d="M240,148.72701v13.3802" stroke="#d1d1d1" stroke-width="2.5" stroke-linecap="round"/><path d="M239.97431,143.47404v-13.3802" stroke="#d1d1d1" stroke-width="2.5" stroke-linecap="round"/><path d="M240.02569,125.18258v-13.3802" stroke="#d1d1d1" stroke-width="2.5" stroke-linecap="round"/><path d="M230.41905,111.80238c0,-5.3056 4.30104,-9.60664 9.60664,-9.60664c5.3056,0 9.60664,4.30104 9.60664,9.60664c0,5.3056 -4.30104,9.60664 -9.60664,9.60664c-5.3056,0 -9.60664,-4.30104 -9.60664,-9.60664z" stroke-opacity="0.52549" stroke="#00d1c7" stroke-width="1.5" stroke-linecap="butt"/><path d="M233.33559,111.80238c0,-3.69484 2.99526,-6.6901 6.6901,-6.6901c3.69484,0 6.6901,2.99526 6.6901,6.6901c0,3.69484 -2.99526,6.6901 -6.6901,6.6901c-3.69484,0 -6.6901,-2.99526 -6.6901,-6.6901z" stroke-opacity="0.52549" stroke="#00d1c7" stroke-width="1.5" stroke-linecap="butt"/><path d="M234.92184,111.80238c0,-2.81878 2.28507,-5.10385 5.10385,-5.10385c2.81878,0 5.10385,2.28507 5.10385,5.10385c0,2.81878 -2.28507,5.10385 -5.10385,5.10385c-2.81878,0 -5.10385,-2.28507 -5.10385,-5.10385z" stroke-opacity="0.52549" stroke="#00d194" stroke-width="1" stroke-linecap="butt"/><path d="M239.94862,180.15425v62.19489" stroke="none" stroke-width="0" stroke-linecap="round"/></g></g></svg>